<svg xmlns="http://www.w3.org/2000/svg" viewBox="0 0 512 512" width="100%" height="100%">
  <defs>
    <linearGradient id="bgGrad" x1="0%" y1="0%" x2="100%" y2="100%">
      <stop offset="0%" stop-color="#34D399" />
      <stop offset="100%" stop-color="#059669" />
    </linearGradient>
    <linearGradient id="pencilGrad" x1="0%" y1="0%" x2="100%" y2="100%">
      <stop offset="0%" stop-color="#FBBF24" />
      <stop offset="100%" stop-color="#F59E0B" />
    </linearGradient>
    <filter id="glow" x="-20%" y="-20%" width="140%" height="140%">
      <feGaussianBlur stdDeviation="10" result="blur" />
      <feComposite in="SourceGraphic" in2="blur" operator="over" />
    </filter>
  </defs>

  <rect width="512" height="512" rx="120" fill="url(#bgGrad)" />

  <circle cx="256" cy="256" r="170" fill="none" stroke="#FFFFFF" stroke-width="8" opacity="0.2" />
  <path d="M86 256H426" stroke="#FFFFFF" stroke-width="8" opacity="0.2" stroke-linecap="round" />
  <path d="M256 86V426" stroke="#FFFFFF" stroke-width="8" opacity="0.2" stroke-linecap="round" />
  <path d="M135 155C200 230 200 282 135 357" fill="none" stroke="#FFFFFF" stroke-width="8" opacity="0.2" stroke-linecap="round" />
  <path d="M377 155C312 230 312 282 377 357" fill="none" stroke="#FFFFFF" stroke-width="8" opacity="0.2" stroke-linecap="round" />

  <path d="M140 360 C 130 200, 360 140, 360 250 C 360 340, 200 380, 180 270 C 160 160, 340 130, 350 160" 
        fill="none" stroke="#FFFFFF" stroke-width="28" stroke-linecap="round" stroke-linejoin="round" filter="url(#glow)" />
  
  <path d="M390 100 L394 112 L406 112 L396 120 L400 132 L390 124 L380 132 L384 120 L374 112 L386 112 Z" fill="#FEF08A" />
  <path d="M130 190 L132 196 L138 196 L133 200 L135 206 L130 202 L125 206 L127 200 L122 196 L128 196 Z" fill="#FEF08A" />

  <g transform="translate(310, 80) rotate(-15)">
    <rect x="0" y="0" width="45" height="120" rx="8" fill="url(#pencilGrad)" />
    <line x1="15" y1="0" x2="15" y2="120" stroke="#D97706" stroke-width="3" opacity="0.3" />
    <line x1="30" y1="0" x2="30" y2="140" stroke="#D97706" stroke-width="3" opacity="0.3" />
    <path d="M0 110 H45 V125 C45 133, 0 133, 0 125 Z" fill="#FCA5A5" />
    <rect x="0" y="104" width="45" height="8" fill="#94A3B8" />
    <polygon points="0,0 22.5,-35 45,0" fill="#FED7AA" />
    <polygon points="13,-20 22.5,-35 32,-20" fill="#334155" />
  </g>
</svg>
